<?xml version="1.0" encoding="utf-8" standalone="no"?>
<!DOCTYPE svg PUBLIC "-//W3C//DTD SVG 1.1//EN"
  "http://www.w3.org/Graphics/SVG/1.1/DTD/svg11.dtd">
<!-- Created with matplotlib (https://matplotlib.org/) -->
<svg height="576pt" version="1.1" viewBox="0 0 576 576" width="576pt" xmlns="http://www.w3.org/2000/svg" xmlns:xlink="http://www.w3.org/1999/xlink">
 <metadata>
  <rdf:RDF xmlns:cc="http://creativecommons.org/ns#" xmlns:dc="http://purl.org/dc/elements/1.1/" xmlns:rdf="http://www.w3.org/1999/02/22-rdf-syntax-ns#">
   <cc:Work>
    <dc:type rdf:resource="http://purl.org/dc/dcmitype/StillImage"/>
    <dc:date>2021-10-28T20:54:16.305558</dc:date>
    <dc:format>image/svg+xml</dc:format>
    <dc:creator>
     <cc:Agent>
      <dc:title>Matplotlib v3.3.0, https://matplotlib.org/</dc:title>
     </cc:Agent>
    </dc:creator>
   </cc:Work>
  </rdf:RDF>
 </metadata>
 <defs>
  <style type="text/css">*{stroke-linecap:butt;stroke-linejoin:round;}</style>
 </defs>
 <g id="figure_1">
  <g id="patch_1">
   <path d="M 0 576 
L 576 576 
L 576 0 
L 0 0 
z
" style="fill:#ffffff;"/>
  </g>
  <g id="axes_1">
   <g id="patch_2">
    <path d="M 72 504 
L 518.4 504 
L 518.4 69.12 
L 72 69.12 
z
" style="fill:#ffffff;"/>
   </g>
   <g id="matplotlib.axis_1">
    <g id="xtick_1">
     <g id="line2d_1">
      <defs>
       <path d="M 0 0 
L 0 3.5 
" id="m29ad033f2b" style="stroke:#000000;stroke-width:0.8;"/>
      </defs>
      <g>
       <use style="stroke:#000000;stroke-width:0.8;" x="92.290909" xlink:href="#m29ad033f2b" y="504"/>
      </g>
     </g>
     <g id="text_1">
      <!-- 0 -->
      <g transform="translate(89.109659 518.598438)scale(0.1 -0.1)">
       <defs>
        <path d="M 31.78125 66.40625 
Q 24.171875 66.40625 20.328125 58.90625 
Q 16.5 51.421875 16.5 36.375 
Q 16.5 21.390625 20.328125 13.890625 
Q 24.171875 6.390625 31.78125 6.390625 
Q 39.453125 6.390625 43.28125 13.890625 
Q 47.125 21.390625 47.125 36.375 
Q 47.125 51.421875 43.28125 58.90625 
Q 39.453125 66.40625 31.78125 66.40625 
z
M 31.78125 74.21875 
Q 44.046875 74.21875 50.515625 64.515625 
Q 56.984375 54.828125 56.984375 36.375 
Q 56.984375 17.96875 50.515625 8.265625 
Q 44.046875 -1.421875 31.78125 -1.421875 
Q 19.53125 -1.421875 13.0625 8.265625 
Q 6.59375 17.96875 6.59375 36.375 
Q 6.59375 54.828125 13.0625 64.515625 
Q 19.53125 74.21875 31.78125 74.21875 
z
" id="DejaVuSans-48"/>
       </defs>
       <use xlink:href="#DejaVuSans-48"/>
      </g>
     </g>
    </g>
    <g id="xtick_2">
     <g id="line2d_2">
      <g>
       <use style="stroke:#000000;stroke-width:0.8;" x="169.58961" xlink:href="#m29ad033f2b" y="504"/>
      </g>
     </g>
     <g id="text_2">
      <!-- 100 -->
      <g transform="translate(160.04586 518.598438)scale(0.1 -0.1)">
       <defs>
        <path d="M 12.40625 8.296875 
L 28.515625 8.296875 
L 28.515625 63.921875 
L 10.984375 60.40625 
L 10.984375 69.390625 
L 28.421875 72.90625 
L 38.28125 72.90625 
L 38.28125 8.296875 
L 54.390625 8.296875 
L 54.390625 0 
L 12.40625 0 
z
" id="DejaVuSans-49"/>
       </defs>
       <use xlink:href="#DejaVuSans-49"/>
       <use x="63.623047" xlink:href="#DejaVuSans-48"/>
       <use x="127.246094" xlink:href="#DejaVuSans-48"/>
      </g>
     </g>
    </g>
    <g id="xtick_3">
     <g id="line2d_3">
      <g>
       <use style="stroke:#000000;stroke-width:0.8;" x="246.888312" xlink:href="#m29ad033f2b" y="504"/>
      </g>
     </g>
     <g id="text_3">
      <!-- 200 -->
      <g transform="translate(237.344562 518.598438)scale(0.1 -0.1)">
       <defs>
        <path d="M 19.1875 8.296875 
L 53.609375 8.296875 
L 53.609375 0 
L 7.328125 0 
L 7.328125 8.296875 
Q 12.9375 14.109375 22.625 23.890625 
Q 32.328125 33.6875 34.8125 36.53125 
Q 39.546875 41.84375 41.421875 45.53125 
Q 43.3125 49.21875 43.3125 52.78125 
Q 43.3125 58.59375 39.234375 62.25 
Q 35.15625 65.921875 28.609375 65.921875 
Q 23.96875 65.921875 18.8125 64.3125 
Q 13.671875 62.703125 7.8125 59.421875 
L 7.8125 69.390625 
Q 13.765625 71.78125 18.9375 73 
Q 24.125 74.21875 28.421875 74.21875 
Q 39.75 74.21875 46.484375 68.546875 
Q 53.21875 62.890625 53.21875 53.421875 
Q 53.21875 48.921875 51.53125 44.890625 
Q 49.859375 40.875 45.40625 35.40625 
Q 44.1875 33.984375 37.640625 27.21875 
Q 31.109375 20.453125 19.1875 8.296875 
z
" id="DejaVuSans-50"/>
       </defs>
       <use xlink:href="#DejaVuSans-50"/>
       <use x="63.623047" xlink:href="#DejaVuSans-48"/>
       <use x="127.246094" xlink:href="#DejaVuSans-48"/>
      </g>
     </g>
    </g>
    <g id="xtick_4">
     <g id="line2d_4">
      <g>
       <use style="stroke:#000000;stroke-width:0.8;" x="324.187013" xlink:href="#m29ad033f2b" y="504"/>
      </g>
     </g>
     <g id="text_4">
      <!-- 300 -->
      <g transform="translate(314.643263 518.598438)scale(0.1 -0.1)">
       <defs>
        <path d="M 40.578125 39.3125 
Q 47.65625 37.796875 51.625 33 
Q 55.609375 28.21875 55.609375 21.1875 
Q 55.609375 10.40625 48.1875 4.484375 
Q 40.765625 -1.421875 27.09375 -1.421875 
Q 22.515625 -1.421875 17.65625 -0.515625 
Q 12.796875 0.390625 7.625 2.203125 
L 7.625 11.71875 
Q 11.71875 9.328125 16.59375 8.109375 
Q 21.484375 6.890625 26.8125 6.890625 
Q 36.078125 6.890625 40.9375 10.546875 
Q 45.796875 14.203125 45.796875 21.1875 
Q 45.796875 27.640625 41.28125 31.265625 
Q 36.765625 34.90625 28.71875 34.90625 
L 20.21875 34.90625 
L 20.21875 43.015625 
L 29.109375 43.015625 
Q 36.375 43.015625 40.234375 45.921875 
Q 44.09375 48.828125 44.09375 54.296875 
Q 44.09375 59.90625 40.109375 62.90625 
Q 36.140625 65.921875 28.71875 65.921875 
Q 24.65625 65.921875 20.015625 65.03125 
Q 15.375 64.15625 9.8125 62.3125 
L 9.8125 71.09375 
Q 15.4375 72.65625 20.34375 73.4375 
Q 25.25 74.21875 29.59375 74.21875 
Q 40.828125 74.21875 47.359375 69.109375 
Q 53.90625 64.015625 53.90625 55.328125 
Q 53.90625 49.265625 50.4375 45.09375 
Q 46.96875 40.921875 40.578125 39.3125 
z
" id="DejaVuSans-51"/>
       </defs>
       <use xlink:href="#DejaVuSans-51"/>
       <use x="63.623047" xlink:href="#DejaVuSans-48"/>
       <use x="127.246094" xlink:href="#DejaVuSans-48"/>
      </g>
     </g>
    </g>
    <g id="xtick_5">
     <g id="line2d_5">
      <g>
       <use style="stroke:#000000;stroke-width:0.8;" x="401.485714" xlink:href="#m29ad033f2b" y="504"/>
      </g>
     </g>
     <g id="text_5">
      <!-- 400 -->
      <g transform="translate(391.941964 518.598438)scale(0.1 -0.1)">
       <defs>
        <path d="M 37.796875 64.3125 
L 12.890625 25.390625 
L 37.796875 25.390625 
z
M 35.203125 72.90625 
L 47.609375 72.90625 
L 47.609375 25.390625 
L 58.015625 25.390625 
L 58.015625 17.1875 
L 47.609375 17.1875 
L 47.609375 0 
L 37.796875 0 
L 37.796875 17.1875 
L 4.890625 17.1875 
L 4.890625 26.703125 
z
" id="DejaVuSans-52"/>
       </defs>
       <use xlink:href="#DejaVuSans-52"/>
       <use x="63.623047" xlink:href="#DejaVuSans-48"/>
       <use x="127.246094" xlink:href="#DejaVuSans-48"/>
      </g>
     </g>
    </g>
    <g id="xtick_6">
     <g id="line2d_6">
      <g>
       <use style="stroke:#000000;stroke-width:0.8;" x="478.784416" xlink:href="#m29ad033f2b" y="504"/>
      </g>
     </g>
     <g id="text_6">
      <!-- 500 -->
      <g transform="translate(469.240666 518.598438)scale(0.1 -0.1)">
       <defs>
        <path d="M 10.796875 72.90625 
L 49.515625 72.90625 
L 49.515625 64.59375 
L 19.828125 64.59375 
L 19.828125 46.734375 
Q 21.96875 47.46875 24.109375 47.828125 
Q 26.265625 48.1875 28.421875 48.1875 
Q 40.625 48.1875 47.75 41.5 
Q 54.890625 34.8125 54.890625 23.390625 
Q 54.890625 11.625 47.5625 5.09375 
Q 40.234375 -1.421875 26.90625 -1.421875 
Q 22.3125 -1.421875 17.546875 -0.640625 
Q 12.796875 0.140625 7.71875 1.703125 
L 7.71875 11.625 
Q 12.109375 9.234375 16.796875 8.0625 
Q 21.484375 6.890625 26.703125 6.890625 
Q 35.15625 6.890625 40.078125 11.328125 
Q 45.015625 15.765625 45.015625 23.390625 
Q 45.015625 31 40.078125 35.4375 
Q 35.15625 39.890625 26.703125 39.890625 
Q 22.75 39.890625 18.8125 39.015625 
Q 14.890625 38.140625 10.796875 36.28125 
z
" id="DejaVuSans-53"/>
       </defs>
       <use xlink:href="#DejaVuSans-53"/>
       <use x="63.623047" xlink:href="#DejaVuSans-48"/>
       <use x="127.246094" xlink:href="#DejaVuSans-48"/>
      </g>
     </g>
    </g>
    <g id="text_7">
     <!-- Zaman -->
     <g transform="translate(277.607812 532.276562)scale(0.1 -0.1)">
      <defs>
       <path d="M 5.609375 72.90625 
L 62.890625 72.90625 
L 62.890625 65.375 
L 16.796875 8.296875 
L 64.015625 8.296875 
L 64.015625 0 
L 4.5 0 
L 4.5 7.515625 
L 50.59375 64.59375 
L 5.609375 64.59375 
z
" id="DejaVuSans-90"/>
       <path d="M 34.28125 27.484375 
Q 23.390625 27.484375 19.1875 25 
Q 14.984375 22.515625 14.984375 16.5 
Q 14.984375 11.71875 18.140625 8.90625 
Q 21.296875 6.109375 26.703125 6.109375 
Q 34.1875 6.109375 38.703125 11.40625 
Q 43.21875 16.703125 43.21875 25.484375 
L 43.21875 27.484375 
z
M 52.203125 31.203125 
L 52.203125 0 
L 43.21875 0 
L 43.21875 8.296875 
Q 40.140625 3.328125 35.546875 0.953125 
Q 30.953125 -1.421875 24.3125 -1.421875 
Q 15.921875 -1.421875 10.953125 3.296875 
Q 6 8.015625 6 15.921875 
Q 6 25.140625 12.171875 29.828125 
Q 18.359375 34.515625 30.609375 34.515625 
L 43.21875 34.515625 
L 43.21875 35.40625 
Q 43.21875 41.609375 39.140625 45 
Q 35.0625 48.390625 27.6875 48.390625 
Q 23 48.390625 18.546875 47.265625 
Q 14.109375 46.140625 10.015625 43.890625 
L 10.015625 52.203125 
Q 14.9375 54.109375 19.578125 55.046875 
Q 24.21875 56 28.609375 56 
Q 40.484375 56 46.34375 49.84375 
Q 52.203125 43.703125 52.203125 31.203125 
z
" id="DejaVuSans-97"/>
       <path d="M 52 44.1875 
Q 55.375 50.25 60.0625 53.125 
Q 64.75 56 71.09375 56 
Q 79.640625 56 84.28125 50.015625 
Q 88.921875 44.046875 88.921875 33.015625 
L 88.921875 0 
L 79.890625 0 
L 79.890625 32.71875 
Q 79.890625 40.578125 77.09375 44.375 
Q 74.3125 48.1875 68.609375 48.1875 
Q 61.625 48.1875 57.5625 43.546875 
Q 53.515625 38.921875 53.515625 30.90625 
L 53.515625 0 
L 44.484375 0 
L 44.484375 32.71875 
Q 44.484375 40.625 41.703125 44.40625 
Q 38.921875 48.1875 33.109375 48.1875 
Q 26.21875 48.1875 22.15625 43.53125 
Q 18.109375 38.875 18.109375 30.90625 
L 18.109375 0 
L 9.078125 0 
L 9.078125 54.6875 
L 18.109375 54.6875 
L 18.109375 46.1875 
Q 21.1875 51.21875 25.484375 53.609375 
Q 29.78125 56 35.6875 56 
Q 41.65625 56 45.828125 52.96875 
Q 50 49.953125 52 44.1875 
z
" id="DejaVuSans-109"/>
       <path d="M 54.890625 33.015625 
L 54.890625 0 
L 45.90625 0 
L 45.90625 32.71875 
Q 45.90625 40.484375 42.875 44.328125 
Q 39.84375 48.1875 33.796875 48.1875 
Q 26.515625 48.1875 22.3125 43.546875 
Q 18.109375 38.921875 18.109375 30.90625 
L 18.109375 0 
L 9.078125 0 
L 9.078125 54.6875 
L 18.109375 54.6875 
L 18.109375 46.1875 
Q 21.34375 51.125 25.703125 53.5625 
Q 30.078125 56 35.796875 56 
Q 45.21875 56 50.046875 50.171875 
Q 54.890625 44.34375 54.890625 33.015625 
z
" id="DejaVuSans-110"/>
      </defs>
      <use xlink:href="#DejaVuSans-90"/>
      <use x="68.505859" xlink:href="#DejaVuSans-97"/>
      <use x="129.785156" xlink:href="#DejaVuSans-109"/>
      <use x="227.197266" xlink:href="#DejaVuSans-97"/>
      <use x="288.476562" xlink:href="#DejaVuSans-110"/>
     </g>
    </g>
   </g>
   <g id="matplotlib.axis_2">
    <g id="ytick_1">
     <g id="line2d_7">
      <defs>
       <path d="M 0 0 
L -3.5 0 
" id="m1ae7847b2d" style="stroke:#000000;stroke-width:0.8;"/>
      </defs>
      <g>
       <use style="stroke:#000000;stroke-width:0.8;" x="72" xlink:href="#m1ae7847b2d" y="454.846325"/>
      </g>
     </g>
     <g id="text_8">
      <!-- 2 -->
      <g transform="translate(58.6375 458.645544)scale(0.1 -0.1)">
       <use xlink:href="#DejaVuSans-50"/>
      </g>
     </g>
    </g>
    <g id="ytick_2">
     <g id="line2d_8">
      <g>
       <use style="stroke:#000000;stroke-width:0.8;" x="72" xlink:href="#m1ae7847b2d" y="358.232401"/>
      </g>
     </g>
     <g id="text_9">
      <!-- 4 -->
      <g transform="translate(58.6375 362.03162)scale(0.1 -0.1)">
       <use xlink:href="#DejaVuSans-52"/>
      </g>
     </g>
    </g>
    <g id="ytick_3">
     <g id="line2d_9">
      <g>
       <use style="stroke:#000000;stroke-width:0.8;" x="72" xlink:href="#m1ae7847b2d" y="261.618477"/>
      </g>
     </g>
     <g id="text_10">
      <!-- 6 -->
      <g transform="translate(58.6375 265.417696)scale(0.1 -0.1)">
       <defs>
        <path d="M 33.015625 40.375 
Q 26.375 40.375 22.484375 35.828125 
Q 18.609375 31.296875 18.609375 23.390625 
Q 18.609375 15.53125 22.484375 10.953125 
Q 26.375 6.390625 33.015625 6.390625 
Q 39.65625 6.390625 43.53125 10.953125 
Q 47.40625 15.53125 47.40625 23.390625 
Q 47.40625 31.296875 43.53125 35.828125 
Q 39.65625 40.375 33.015625 40.375 
z
M 52.59375 71.296875 
L 52.59375 62.3125 
Q 48.875 64.0625 45.09375 64.984375 
Q 41.3125 65.921875 37.59375 65.921875 
Q 27.828125 65.921875 22.671875 59.328125 
Q 17.53125 52.734375 16.796875 39.40625 
Q 19.671875 43.65625 24.015625 45.921875 
Q 28.375 48.1875 33.59375 48.1875 
Q 44.578125 48.1875 50.953125 41.515625 
Q 57.328125 34.859375 57.328125 23.390625 
Q 57.328125 12.15625 50.6875 5.359375 
Q 44.046875 -1.421875 33.015625 -1.421875 
Q 20.359375 -1.421875 13.671875 8.265625 
Q 6.984375 17.96875 6.984375 36.375 
Q 6.984375 53.65625 15.1875 63.9375 
Q 23.390625 74.21875 37.203125 74.21875 
Q 40.921875 74.21875 44.703125 73.484375 
Q 48.484375 72.75 52.59375 71.296875 
z
" id="DejaVuSans-54"/>
       </defs>
       <use xlink:href="#DejaVuSans-54"/>
      </g>
     </g>
    </g>
    <g id="ytick_4">
     <g id="line2d_10">
      <g>
       <use style="stroke:#000000;stroke-width:0.8;" x="72" xlink:href="#m1ae7847b2d" y="165.004553"/>
      </g>
     </g>
     <g id="text_11">
      <!-- 8 -->
      <g transform="translate(58.6375 168.803772)scale(0.1 -0.1)">
       <defs>
        <path d="M 31.78125 34.625 
Q 24.75 34.625 20.71875 30.859375 
Q 16.703125 27.09375 16.703125 20.515625 
Q 16.703125 13.921875 20.71875 10.15625 
Q 24.75 6.390625 31.78125 6.390625 
Q 38.8125 6.390625 42.859375 10.171875 
Q 46.921875 13.96875 46.921875 20.515625 
Q 46.921875 27.09375 42.890625 30.859375 
Q 38.875 34.625 31.78125 34.625 
z
M 21.921875 38.8125 
Q 15.578125 40.375 12.03125 44.71875 
Q 8.5 49.078125 8.5 55.328125 
Q 8.5 64.0625 14.71875 69.140625 
Q 20.953125 74.21875 31.78125 74.21875 
Q 42.671875 74.21875 48.875 69.140625 
Q 55.078125 64.0625 55.078125 55.328125 
Q 55.078125 49.078125 51.53125 44.71875 
Q 48 40.375 41.703125 38.8125 
Q 48.828125 37.15625 52.796875 32.3125 
Q 56.78125 27.484375 56.78125 20.515625 
Q 56.78125 9.90625 50.3125 4.234375 
Q 43.84375 -1.421875 31.78125 -1.421875 
Q 19.734375 -1.421875 13.25 4.234375 
Q 6.78125 9.90625 6.78125 20.515625 
Q 6.78125 27.484375 10.78125 32.3125 
Q 14.796875 37.15625 21.921875 38.8125 
z
M 18.3125 54.390625 
Q 18.3125 48.734375 21.84375 45.5625 
Q 25.390625 42.390625 31.78125 42.390625 
Q 38.140625 42.390625 41.71875 45.5625 
Q 45.3125 48.734375 45.3125 54.390625 
Q 45.3125 60.0625 41.71875 63.234375 
Q 38.140625 66.40625 31.78125 66.40625 
Q 25.390625 66.40625 21.84375 63.234375 
Q 18.3125 60.0625 18.3125 54.390625 
z
" id="DejaVuSans-56"/>
       </defs>
       <use xlink:href="#DejaVuSans-56"/>
      </g>
     </g>
    </g>
    <g id="text_12">
     <!-- USD -->
     <g transform="translate(52.557813 297.243594)rotate(-90)scale(0.1 -0.1)">
      <defs>
       <path d="M 8.6875 72.90625 
L 18.609375 72.90625 
L 18.609375 28.609375 
Q 18.609375 16.890625 22.84375 11.734375 
Q 27.09375 6.59375 36.625 6.59375 
Q 46.09375 6.59375 50.34375 11.734375 
Q 54.59375 16.890625 54.59375 28.609375 
L 54.59375 72.90625 
L 64.5 72.90625 
L 64.5 27.390625 
Q 64.5 13.140625 57.4375 5.859375 
Q 50.390625 -1.421875 36.625 -1.421875 
Q 22.796875 -1.421875 15.734375 5.859375 
Q 8.6875 13.140625 8.6875 27.390625 
z
" id="DejaVuSans-85"/>
       <path d="M 53.515625 70.515625 
L 53.515625 60.890625 
Q 47.90625 63.578125 42.921875 64.890625 
Q 37.9375 66.21875 33.296875 66.21875 
Q 25.25 66.21875 20.875 63.09375 
Q 16.5 59.96875 16.5 54.203125 
Q 16.5 49.359375 19.40625 46.890625 
Q 22.3125 44.4375 30.421875 42.921875 
L 36.375 41.703125 
Q 47.40625 39.59375 52.65625 34.296875 
Q 57.90625 29 57.90625 20.125 
Q 57.90625 9.515625 50.796875 4.046875 
Q 43.703125 -1.421875 29.984375 -1.421875 
Q 24.8125 -1.421875 18.96875 -0.25 
Q 13.140625 0.921875 6.890625 3.21875 
L 6.890625 13.375 
Q 12.890625 10.015625 18.65625 8.296875 
Q 24.421875 6.59375 29.984375 6.59375 
Q 38.421875 6.59375 43.015625 9.90625 
Q 47.609375 13.234375 47.609375 19.390625 
Q 47.609375 24.75 44.3125 27.78125 
Q 41.015625 30.8125 33.5 32.328125 
L 27.484375 33.5 
Q 16.453125 35.6875 11.515625 40.375 
Q 6.59375 45.0625 6.59375 53.421875 
Q 6.59375 63.09375 13.40625 68.65625 
Q 20.21875 74.21875 32.171875 74.21875 
Q 37.3125 74.21875 42.625 73.28125 
Q 47.953125 72.359375 53.515625 70.515625 
z
" id="DejaVuSans-83"/>
       <path d="M 19.671875 64.796875 
L 19.671875 8.109375 
L 31.59375 8.109375 
Q 46.6875 8.109375 53.6875 14.9375 
Q 60.6875 21.78125 60.6875 36.53125 
Q 60.6875 51.171875 53.6875 57.984375 
Q 46.6875 64.796875 31.59375 64.796875 
z
M 9.8125 72.90625 
L 30.078125 72.90625 
Q 51.265625 72.90625 61.171875 64.09375 
Q 71.09375 55.28125 71.09375 36.53125 
Q 71.09375 17.671875 61.125 8.828125 
Q 51.171875 0 30.078125 0 
L 9.8125 0 
z
" id="DejaVuSans-68"/>
      </defs>
      <use xlink:href="#DejaVuSans-85"/>
      <use x="73.193359" xlink:href="#DejaVuSans-83"/>
      <use x="136.669922" xlink:href="#DejaVuSans-68"/>
     </g>
    </g>
   </g>
   <g id="line2d_11">
    <path clip-path="url(#p7467d3cc6e)" d="M 92.290909 462.106862 
L 93.063896 463.029525 
L 93.836883 462.870112 
L 94.60987 467.150108 
L 95.382857 466.043879 
L 96.155844 465.710561 
L 97.701818 460.36298 
L 98.474805 463.019863 
L 99.247792 462.430518 
L 100.020779 460.338827 
L 100.793766 459.701175 
L 101.566753 460.401626 
L 102.33974 460.759097 
L 103.112727 461.565824 
L 103.885714 463.058509 
L 104.658701 465.628439 
L 105.431688 466.778145 
L 106.204675 466.295075 
L 106.977662 466.81196 
L 107.750649 466.140493 
L 108.523636 466.068033 
L 109.296623 465.135708 
L 110.06961 464.754083 
L 110.842597 464.507718 
L 111.615584 465.353089 
L 112.388571 464.836205 
L 113.161558 464.676792 
L 113.934545 464.889343 
L 114.707532 466.401351 
L 115.480519 466.512457 
L 116.253506 465.232322 
L 117.026494 462.739683 
L 117.799481 462.145507 
L 118.572468 461.754221 
L 119.345455 463.358012 
L 120.118442 463.952188 
L 120.891429 463.783113 
L 121.664416 464.03914 
L 122.437403 463.589885 
L 123.21039 463.957018 
L 123.983377 464.10677 
L 124.756364 463.928034 
L 125.529351 465.507672 
L 126.302338 465.377243 
L 127.075325 464.478733 
L 127.848312 464.580178 
L 128.621299 463.609208 
L 129.394286 464.6623 
L 131.713247 464.681623 
L 132.486234 464.261352 
L 133.259221 464.1744 
L 134.032208 464.744422 
L 134.805195 464.478733 
L 135.578182 464.860358 
L 136.351169 464.932819 
L 137.124156 464.483564 
L 138.67013 465.121216 
L 139.443117 465.068078 
L 140.216104 465.522164 
L 140.989091 464.628485 
L 142.535065 465.386904 
L 143.308052 465.98108 
L 144.081039 466.425504 
L 144.854026 466.077694 
L 145.627013 467.053495 
L 146.4 465.884466 
L 147.172987 466.126001 
L 147.945974 464.415934 
L 148.718961 464.633316 
L 149.491948 464.290336 
L 150.264935 464.203384 
L 151.037922 463.802436 
L 151.810909 464.072955 
L 152.583896 464.816882 
L 153.356883 465.082571 
L 154.12987 464.517379 
L 155.675844 464.783067 
L 156.448831 464.444919 
L 157.221818 462.473995 
L 157.994805 462.256613 
L 158.767792 460.855711 
L 159.540779 460.981309 
L 160.313766 461.657607 
L 161.086753 457.802711 
L 161.85974 458.285781 
L 162.632727 456.377656 
L 163.405714 457.140906 
L 164.178701 458.802665 
L 164.951688 458.42104 
L 165.724675 458.445194 
L 166.497662 458.691559 
L 167.270649 457.522531 
L 168.043636 455.43567 
L 168.816623 452.899555 
L 169.58961 452.600052 
L 170.362597 453.49373 
L 171.135584 455.817295 
L 171.908571 453.35364 
L 172.681558 455.469485 
L 173.454545 455.701358 
L 174.227532 456.363164 
L 175.000519 455.64339 
L 175.773506 454.025107 
L 176.546494 452.962354 
L 177.319481 453.430931 
L 178.092468 454.570976 
L 178.865455 453.889847 
L 179.638442 453.62899 
L 180.411429 452.894724 
L 181.184416 450.411746 
L 181.957403 447.537482 
L 182.73039 446.223533 
L 183.503377 446.875677 
L 184.276364 443.653602 
L 185.049351 438.832567 
L 185.822338 442.2527 
L 187.368312 446.102765 
L 188.141299 446.213871 
L 188.914286 444.735678 
L 189.687273 444.919245 
L 190.46026 444.556942 
L 191.233247 443.56665 
L 192.006234 445.624526 
L 192.779221 449.363485 
L 193.552208 449.392469 
L 194.325195 448.585743 
L 195.098182 448.373192 
L 196.644156 451.112197 
L 197.417143 450.02529 
L 198.19013 450.894816 
L 198.963117 450.155719 
L 199.736104 451.073552 
L 200.509091 448.890077 
L 201.282078 448.059197 
L 202.055065 448.91423 
L 202.828052 448.42633 
L 203.601039 449.170257 
L 204.374026 448.822447 
L 205.147013 450.310302 
L 205.92 448.402177 
L 206.692987 447.841816 
L 207.465974 446.774232 
L 208.238961 446.368453 
L 209.011948 446.928814 
L 209.784935 447.165518 
L 210.557922 444.073873 
L 211.330909 443.508681 
L 212.876883 440.634417 
L 213.64987 440.914597 
L 214.422857 442.962813 
L 215.195844 443.672925 
L 215.968831 444.025566 
L 216.741818 442.383129 
L 217.514805 443.755047 
L 218.287792 444.131841 
L 219.060779 444.238116 
L 220.606753 440.402544 
L 221.37974 439.769722 
L 222.152727 439.508865 
L 222.925714 438.219069 
L 223.698701 440.595771 
L 225.244675 438.02101 
L 226.017662 433.282097 
L 226.790649 431.948825 
L 227.563636 432.716906 
L 228.336623 432.982594 
L 229.10961 430.267743 
L 229.882597 424.688289 
L 230.655584 423.944362 
L 231.428571 427.166436 
L 232.201558 425.369417 
L 232.974545 427.219574 
L 234.520519 422.084544 
L 235.293506 420.335832 
L 236.066494 420.649827 
L 236.839481 421.258495 
L 237.612468 427.026346 
L 238.385455 425.905624 
L 239.158442 422.818809 
L 239.931429 422.862286 
L 240.704416 420.413123 
L 241.477403 421.268156 
L 242.25039 422.727026 
L 243.023377 421.586982 
L 243.796364 422.640074 
L 244.569351 423.321202 
L 245.342338 419.210279 
L 246.115325 417.601657 
L 246.888312 417.157233 
L 247.661299 414.558319 
L 248.434286 410.466719 
L 249.207273 410.220354 
L 249.98026 406.181892 
L 250.753247 404.293089 
L 251.526234 406.297828 
L 252.299221 404.283428 
L 253.072208 406.993449 
L 253.845195 410.800037 
L 254.618182 411.771007 
L 255.391169 410.993265 
L 256.164156 410.640624 
L 256.937143 410.630963 
L 257.71013 413.123602 
L 258.483117 414.669425 
L 259.256104 410.186539 
L 260.029091 411.611594 
L 260.802078 407.423381 
L 261.575065 410.944958 
L 262.348052 410.258999 
L 263.121039 410.698593 
L 263.894026 405.505594 
L 264.667013 404.201306 
L 266.212987 408.698684 
L 266.985974 410.244507 
L 267.758961 409.945004 
L 268.531948 408.87742 
L 269.304935 406.901665 
L 270.077922 410.973942 
L 270.850909 412.964189 
L 271.623896 412.935205 
L 272.396883 412.514934 
L 273.16987 415.133172 
L 273.942857 413.828884 
L 274.715844 413.568026 
L 275.488831 413.838545 
L 276.261818 416.418137 
L 277.034805 410.051279 
L 277.807792 407.978911 
L 278.580779 407.689069 
L 279.353766 408.592409 
L 280.126753 411.2348 
L 280.89974 409.964327 
L 281.672727 410.060941 
L 282.445714 409.959496 
L 283.218701 411.278276 
L 283.991688 411.79033 
L 284.764675 405.582885 
L 285.537662 403.399411 
L 286.310649 407.104555 
L 287.083636 406.602162 
L 287.856623 408.500626 
L 288.62961 409.954665 
L 289.402597 408.771145 
L 290.175584 408.911235 
L 290.948571 408.326721 
L 291.721558 407.462026 
L 292.494545 408.123832 
L 293.267532 406.578009 
L 294.040519 404.075708 
L 294.813506 402.167583 
L 295.586494 402.607176 
L 296.359481 401.375349 
L 297.132468 398.960001 
L 297.905455 394.356347 
L 298.678442 388.40976 
L 300.224416 381.46805 
L 300.997403 383.018703 
L 301.77039 382.057395 
L 303.316364 381.047779 
L 304.089351 375.405526 
L 304.862338 371.61343 
L 305.635325 369.560384 
L 306.408312 364.150004 
L 307.181299 372.840426 
L 307.954286 372.951532 
L 308.727273 376.154284 
L 309.50026 377.217037 
L 310.273247 372.579569 
L 311.046234 371.280112 
L 311.819221 375.893426 
L 312.592208 377.033471 
L 313.365195 375.854781 
L 314.138182 371.280112 
L 314.911169 371.144852 
L 316.457143 379.893243 
L 317.23013 380.255545 
L 318.003117 378.854643 
L 319.549091 378.632431 
L 320.322078 381.912474 
L 321.095065 380.584032 
L 321.868052 382.255453 
L 322.641039 381.960781 
L 323.414026 381.361775 
L 324.187013 376.675999 
L 324.96 380.545387 
L 325.732987 380.632339 
L 326.505974 381.038118 
L 327.278961 381.038118 
L 328.051948 380.603355 
L 328.824935 381.492203 
L 329.597922 385.337438 
L 330.370909 385.844661 
L 331.143896 386.651387 
L 331.916883 385.400237 
L 332.68987 382.569449 
L 333.462857 379.308729 
L 334.235844 376.835412 
L 335.008831 375.869273 
L 335.781818 374.106069 
L 336.554805 368.449324 
L 337.327792 363.720072 
L 338.100779 364.821471 
L 338.873766 364.159665 
L 339.646753 360.952083 
L 340.41974 362.430276 
L 341.192727 366.019483 
L 341.965714 364.913254 
L 342.738701 367.135374 
L 343.511688 368.376863 
L 344.284675 370.951624 
L 345.057662 370.396094 
L 345.830649 367.579798 
L 346.603636 370.082099 
L 347.376623 369.173928 
L 348.14961 366.802056 
L 348.922597 370.43474 
L 349.695584 368.35271 
L 350.468571 367.550814 
L 351.241558 367.357586 
L 352.014545 362.116281 
L 352.787532 359.082604 
L 353.560519 360.396553 
L 354.333506 356.063419 
L 355.106494 353.551456 
L 355.879481 354.532088 
L 356.652468 356.193847 
L 357.425455 347.315028 
L 358.198442 343.083338 
L 358.971429 334.479868 
L 359.744416 324.026241 
L 360.517403 326.79423 
L 361.29039 335.334901 
L 362.063377 322.963488 
L 362.836364 325.514096 
L 363.609351 329.866553 
L 364.382338 330.67811 
L 365.155325 316.920287 
L 365.928312 319.939472 
L 366.701299 317.031393 
L 367.474286 305.988422 
L 368.247273 240.967251 
L 369.02026 260.94218 
L 369.793247 261.28999 
L 370.566234 235.629331 
L 371.339221 242.440613 
L 372.112208 253.391801 
L 372.885195 247.430722 
L 373.658182 258.913287 
L 374.431169 255.179159 
L 375.977143 278.888216 
L 376.75013 281.284241 
L 377.523117 289.172768 
L 378.296104 287.675252 
L 379.069091 293.897189 
L 379.842078 296.037187 
L 380.615065 299.645718 
L 381.388052 295.29326 
L 382.161039 292.365858 
L 383.707013 296.761792 
L 384.48 293.931004 
L 385.252987 287.945771 
L 386.025974 294.066263 
L 387.571948 299.858268 
L 388.344935 297.974297 
L 389.117922 296.81493 
L 389.890909 294.534841 
L 391.436883 289.138953 
L 392.20987 288.346719 
L 392.982857 273.081719 
L 393.755844 283.090922 
L 394.528831 279.675619 
L 395.301818 272.762893 
L 396.074805 270.738831 
L 396.847792 264.603847 
L 397.620779 263.318882 
L 398.393766 262.343081 
L 399.166753 258.961594 
L 399.93974 257.633153 
L 400.712727 269.434543 
L 401.485714 269.782354 
L 402.258701 266.376713 
L 403.031688 270.2461 
L 403.804675 271.661494 
L 404.577662 279.550021 
L 405.350649 275.144426 
L 406.123636 278.279548 
L 406.896623 277.472822 
L 407.66961 282.888032 
L 408.442597 286.172906 
L 409.215584 281.979861 
L 409.988571 273.216979 
L 410.761558 269.801676 
L 411.534545 275.361808 
L 412.307532 276.782032 
L 413.080519 273.98989 
L 413.853506 277.521129 
L 414.626494 276.294132 
L 415.399481 267.159286 
L 416.172468 271.671156 
L 416.945455 272.497205 
L 417.718442 275.511559 
L 418.491429 272.883661 
L 419.264416 273.92226 
L 420.037403 275.472914 
L 421.583377 272.410252 
L 422.356364 270.883752 
L 423.129351 264.516895 
L 423.902338 264.024164 
L 424.675325 262.95658 
L 425.448312 267.526418 
L 426.221299 266.893597 
L 427.767273 262.478341 
L 429.313247 259.178975 
L 430.086234 256.961686 
L 430.859221 249.894377 
L 431.632208 257.179067 
L 433.178182 234.92888 
L 433.951169 239.638809 
L 434.724156 226.306088 
L 435.497143 227.798773 
L 436.27013 216.60605 
L 437.816104 212.731831 
L 438.589091 209.25373 
L 439.362078 218.084243 
L 440.135065 222.262795 
L 440.908052 221.997107 
L 441.681039 224.422116 
L 443.227013 220.412638 
L 444 220.335347 
L 444.772987 219.958553 
L 445.545974 219.794309 
L 446.318961 220.142119 
L 447.091948 220.63485 
L 447.864935 214.668941 
L 448.637922 199.104437 
L 449.410909 195.4476 
L 450.183896 196.954778 
L 450.956883 197.133513 
L 451.72987 192.196542 
L 452.502857 190.298078 
L 453.275844 186.245124 
L 455.594805 171.801342 
L 456.367792 168.17349 
L 457.140779 166.704958 
L 457.913766 148.251698 
L 458.686753 139.643398 
L 459.45974 181.226031 
L 460.232727 182.593118 
L 461.005714 172.96554 
L 461.778701 174.516194 
L 462.551688 171.709559 
L 463.324675 182.931266 
L 464.097662 186.380384 
L 464.870649 192.095097 
L 465.643636 195.138436 
L 466.416623 190.351216 
L 467.18961 193.283448 
L 467.962597 198.099653 
L 468.735584 210.7126 
L 469.508571 211.528988 
L 470.281558 215.065058 
L 471.054545 192.766564 
L 471.827532 187.283724 
L 472.600519 186.085711 
L 473.373506 202.73229 
L 474.146494 158.483113 
L 474.919481 157.183656 
L 475.692468 157.594265 
L 476.465455 162.265548 
L 477.238442 146.831474 
L 478.011429 151.792599 
L 478.784416 153.720047 
L 479.557403 143.68669 
L 480.33039 145.362942 
L 481.103377 138.513015 
L 481.876364 133.300694 
L 482.649351 146.560955 
L 483.422338 129.94819 
L 484.195325 128.808146 
L 484.968312 132.194464 
L 485.741299 133.793425 
L 486.514286 140.155452 
L 487.287273 138.575814 
L 488.06026 144.073146 
L 488.833247 135.247464 
L 489.606234 140.025023 
L 490.379221 141.566015 
L 491.152208 148.415942 
L 491.925195 150.27576 
L 492.698182 143.010393 
L 493.471169 134.653289 
L 494.244156 122.562056 
L 495.017143 123.692439 
L 495.79013 118.56224 
L 497.336104 88.887273 
L 498.109091 90.940319 
L 498.109091 90.940319 
" style="fill:none;stroke:#1f77b4;stroke-linecap:square;stroke-width:1.5;"/>
   </g>
   <g id="line2d_12">
    <path clip-path="url(#p7467d3cc6e)" d="M 92.290909 484.232727 
L 315.684156 390.253536 
L 315.684156 390.253536 
" style="fill:none;stroke:#ff7f0e;stroke-linecap:square;stroke-width:1.5;"/>
   </g>
   <g id="line2d_13">
    <path clip-path="url(#p7467d3cc6e)" d="M 316.457143 390.011979 
L 498.109091 146.532935 
L 498.109091 146.532935 
" style="fill:none;stroke:#2ca02c;stroke-linecap:square;stroke-width:1.5;"/>
   </g>
   <g id="line2d_14">
    <path clip-path="url(#p7467d3cc6e)" d="M 316.457143 389.928349 
L 498.109091 313.509284 
L 498.109091 313.509284 
" style="fill:none;stroke:#d62728;stroke-dasharray:5.55,2.4;stroke-dashoffset:0;stroke-width:1.5;"/>
   </g>
   <g id="patch_3">
    <path d="M 72 504 
L 72 69.12 
" style="fill:none;stroke:#000000;stroke-linecap:square;stroke-linejoin:miter;stroke-width:0.8;"/>
   </g>
   <g id="patch_4">
    <path d="M 518.4 504 
L 518.4 69.12 
" style="fill:none;stroke:#000000;stroke-linecap:square;stroke-linejoin:miter;stroke-width:0.8;"/>
   </g>
   <g id="patch_5">
    <path d="M 72 504 
L 518.4 504 
" style="fill:none;stroke:#000000;stroke-linecap:square;stroke-linejoin:miter;stroke-width:0.8;"/>
   </g>
   <g id="patch_6">
    <path d="M 72 69.12 
L 518.4 69.12 
" style="fill:none;stroke:#000000;stroke-linecap:square;stroke-linejoin:miter;stroke-width:0.8;"/>
   </g>
   <g id="text_13">
    <!-- Turk Tipi Baskanlik Sisteminin Dolar uzerinde Etkisi (-%41) -->
    <g transform="translate(120.285 63.12)scale(0.12 -0.12)">
     <defs>
      <path d="M -0.296875 72.90625 
L 61.375 72.90625 
L 61.375 64.59375 
L 35.5 64.59375 
L 35.5 0 
L 25.59375 0 
L 25.59375 64.59375 
L -0.296875 64.59375 
z
" id="DejaVuSans-84"/>
      <path d="M 8.5 21.578125 
L 8.5 54.6875 
L 17.484375 54.6875 
L 17.484375 21.921875 
Q 17.484375 14.15625 20.5 10.265625 
Q 23.53125 6.390625 29.59375 6.390625 
Q 36.859375 6.390625 41.078125 11.03125 
Q 45.3125 15.671875 45.3125 23.6875 
L 45.3125 54.6875 
L 54.296875 54.6875 
L 54.296875 0 
L 45.3125 0 
L 45.3125 8.40625 
Q 42.046875 3.421875 37.71875 1 
Q 33.40625 -1.421875 27.6875 -1.421875 
Q 18.265625 -1.421875 13.375 4.4375 
Q 8.5 10.296875 8.5 21.578125 
z
M 31.109375 56 
z
" id="DejaVuSans-117"/>
      <path d="M 41.109375 46.296875 
Q 39.59375 47.171875 37.8125 47.578125 
Q 36.03125 48 33.890625 48 
Q 26.265625 48 22.1875 43.046875 
Q 18.109375 38.09375 18.109375 28.8125 
L 18.109375 0 
L 9.078125 0 
L 9.078125 54.6875 
L 18.109375 54.6875 
L 18.109375 46.1875 
Q 20.953125 51.171875 25.484375 53.578125 
Q 30.03125 56 36.53125 56 
Q 37.453125 56 38.578125 55.875 
Q 39.703125 55.765625 41.0625 55.515625 
z
" id="DejaVuSans-114"/>
      <path d="M 9.078125 75.984375 
L 18.109375 75.984375 
L 18.109375 31.109375 
L 44.921875 54.6875 
L 56.390625 54.6875 
L 27.390625 29.109375 
L 57.625 0 
L 45.90625 0 
L 18.109375 26.703125 
L 18.109375 0 
L 9.078125 0 
z
" id="DejaVuSans-107"/>
      <path id="DejaVuSans-32"/>
      <path d="M 9.421875 54.6875 
L 18.40625 54.6875 
L 18.40625 0 
L 9.421875 0 
z
M 9.421875 75.984375 
L 18.40625 75.984375 
L 18.40625 64.59375 
L 9.421875 64.59375 
z
" id="DejaVuSans-105"/>
      <path d="M 18.109375 8.203125 
L 18.109375 -20.796875 
L 9.078125 -20.796875 
L 9.078125 54.6875 
L 18.109375 54.6875 
L 18.109375 46.390625 
Q 20.953125 51.265625 25.265625 53.625 
Q 29.59375 56 35.59375 56 
Q 45.5625 56 51.78125 48.09375 
Q 58.015625 40.1875 58.015625 27.296875 
Q 58.015625 14.40625 51.78125 6.484375 
Q 45.5625 -1.421875 35.59375 -1.421875 
Q 29.59375 -1.421875 25.265625 0.953125 
Q 20.953125 3.328125 18.109375 8.203125 
z
M 48.6875 27.296875 
Q 48.6875 37.203125 44.609375 42.84375 
Q 40.53125 48.484375 33.40625 48.484375 
Q 26.265625 48.484375 22.1875 42.84375 
Q 18.109375 37.203125 18.109375 27.296875 
Q 18.109375 17.390625 22.1875 11.75 
Q 26.265625 6.109375 33.40625 6.109375 
Q 40.53125 6.109375 44.609375 11.75 
Q 48.6875 17.390625 48.6875 27.296875 
z
" id="DejaVuSans-112"/>
      <path d="M 19.671875 34.8125 
L 19.671875 8.109375 
L 35.5 8.109375 
Q 43.453125 8.109375 47.28125 11.40625 
Q 51.125 14.703125 51.125 21.484375 
Q 51.125 28.328125 47.28125 31.5625 
Q 43.453125 34.8125 35.5 34.8125 
z
M 19.671875 64.796875 
L 19.671875 42.828125 
L 34.28125 42.828125 
Q 41.5 42.828125 45.03125 45.53125 
Q 48.578125 48.25 48.578125 53.8125 
Q 48.578125 59.328125 45.03125 62.0625 
Q 41.5 64.796875 34.28125 64.796875 
z
M 9.8125 72.90625 
L 35.015625 72.90625 
Q 46.296875 72.90625 52.390625 68.21875 
Q 58.5 63.53125 58.5 54.890625 
Q 58.5 48.1875 55.375 44.234375 
Q 52.25 40.28125 46.1875 39.3125 
Q 53.46875 37.75 57.5 32.78125 
Q 61.53125 27.828125 61.53125 20.40625 
Q 61.53125 10.640625 54.890625 5.3125 
Q 48.25 0 35.984375 0 
L 9.8125 0 
z
" id="DejaVuSans-66"/>
      <path d="M 44.28125 53.078125 
L 44.28125 44.578125 
Q 40.484375 46.53125 36.375 47.5 
Q 32.28125 48.484375 27.875 48.484375 
Q 21.1875 48.484375 17.84375 46.4375 
Q 14.5 44.390625 14.5 40.28125 
Q 14.5 37.15625 16.890625 35.375 
Q 19.28125 33.59375 26.515625 31.984375 
L 29.59375 31.296875 
Q 39.15625 29.25 43.1875 25.515625 
Q 47.21875 21.78125 47.21875 15.09375 
Q 47.21875 7.46875 41.1875 3.015625 
Q 35.15625 -1.421875 24.609375 -1.421875 
Q 20.21875 -1.421875 15.453125 -0.5625 
Q 10.6875 0.296875 5.421875 2 
L 5.421875 11.28125 
Q 10.40625 8.6875 15.234375 7.390625 
Q 20.0625 6.109375 24.8125 6.109375 
Q 31.15625 6.109375 34.5625 8.28125 
Q 37.984375 10.453125 37.984375 14.40625 
Q 37.984375 18.0625 35.515625 20.015625 
Q 33.0625 21.96875 24.703125 23.78125 
L 21.578125 24.515625 
Q 13.234375 26.265625 9.515625 29.90625 
Q 5.8125 33.546875 5.8125 39.890625 
Q 5.8125 47.609375 11.28125 51.796875 
Q 16.75 56 26.8125 56 
Q 31.78125 56 36.171875 55.265625 
Q 40.578125 54.546875 44.28125 53.078125 
z
" id="DejaVuSans-115"/>
      <path d="M 9.421875 75.984375 
L 18.40625 75.984375 
L 18.40625 0 
L 9.421875 0 
z
" id="DejaVuSans-108"/>
      <path d="M 18.3125 70.21875 
L 18.3125 54.6875 
L 36.8125 54.6875 
L 36.8125 47.703125 
L 18.3125 47.703125 
L 18.3125 18.015625 
Q 18.3125 11.328125 20.140625 9.421875 
Q 21.96875 7.515625 27.59375 7.515625 
L 36.8125 7.515625 
L 36.8125 0 
L 27.59375 0 
Q 17.1875 0 13.234375 3.875 
Q 9.28125 7.765625 9.28125 18.015625 
L 9.28125 47.703125 
L 2.6875 47.703125 
L 2.6875 54.6875 
L 9.28125 54.6875 
L 9.28125 70.21875 
z
" id="DejaVuSans-116"/>
      <path d="M 56.203125 29.59375 
L 56.203125 25.203125 
L 14.890625 25.203125 
Q 15.484375 15.921875 20.484375 11.0625 
Q 25.484375 6.203125 34.421875 6.203125 
Q 39.59375 6.203125 44.453125 7.46875 
Q 49.3125 8.734375 54.109375 11.28125 
L 54.109375 2.78125 
Q 49.265625 0.734375 44.1875 -0.34375 
Q 39.109375 -1.421875 33.890625 -1.421875 
Q 20.796875 -1.421875 13.15625 6.1875 
Q 5.515625 13.8125 5.515625 26.8125 
Q 5.515625 40.234375 12.765625 48.109375 
Q 20.015625 56 32.328125 56 
Q 43.359375 56 49.78125 48.890625 
Q 56.203125 41.796875 56.203125 29.59375 
z
M 47.21875 32.234375 
Q 47.125 39.59375 43.09375 43.984375 
Q 39.0625 48.390625 32.421875 48.390625 
Q 24.90625 48.390625 20.390625 44.140625 
Q 15.875 39.890625 15.1875 32.171875 
z
" id="DejaVuSans-101"/>
      <path d="M 30.609375 48.390625 
Q 23.390625 48.390625 19.1875 42.75 
Q 14.984375 37.109375 14.984375 27.296875 
Q 14.984375 17.484375 19.15625 11.84375 
Q 23.34375 6.203125 30.609375 6.203125 
Q 37.796875 6.203125 41.984375 11.859375 
Q 46.1875 17.53125 46.1875 27.296875 
Q 46.1875 37.015625 41.984375 42.703125 
Q 37.796875 48.390625 30.609375 48.390625 
z
M 30.609375 56 
Q 42.328125 56 49.015625 48.375 
Q 55.71875 40.765625 55.71875 27.296875 
Q 55.71875 13.875 49.015625 6.21875 
Q 42.328125 -1.421875 30.609375 -1.421875 
Q 18.84375 -1.421875 12.171875 6.21875 
Q 5.515625 13.875 5.515625 27.296875 
Q 5.515625 40.765625 12.171875 48.375 
Q 18.84375 56 30.609375 56 
z
" id="DejaVuSans-111"/>
      <path d="M 5.515625 54.6875 
L 48.1875 54.6875 
L 48.1875 46.484375 
L 14.40625 7.171875 
L 48.1875 7.171875 
L 48.1875 0 
L 4.296875 0 
L 4.296875 8.203125 
L 38.09375 47.515625 
L 5.515625 47.515625 
z
" id="DejaVuSans-122"/>
      <path d="M 45.40625 46.390625 
L 45.40625 75.984375 
L 54.390625 75.984375 
L 54.390625 0 
L 45.40625 0 
L 45.40625 8.203125 
Q 42.578125 3.328125 38.25 0.953125 
Q 33.9375 -1.421875 27.875 -1.421875 
Q 17.96875 -1.421875 11.734375 6.484375 
Q 5.515625 14.40625 5.515625 27.296875 
Q 5.515625 40.1875 11.734375 48.09375 
Q 17.96875 56 27.875 56 
Q 33.9375 56 38.25 53.625 
Q 42.578125 51.265625 45.40625 46.390625 
z
M 14.796875 27.296875 
Q 14.796875 17.390625 18.875 11.75 
Q 22.953125 6.109375 30.078125 6.109375 
Q 37.203125 6.109375 41.296875 11.75 
Q 45.40625 17.390625 45.40625 27.296875 
Q 45.40625 37.203125 41.296875 42.84375 
Q 37.203125 48.484375 30.078125 48.484375 
Q 22.953125 48.484375 18.875 42.84375 
Q 14.796875 37.203125 14.796875 27.296875 
z
" id="DejaVuSans-100"/>
      <path d="M 9.8125 72.90625 
L 55.90625 72.90625 
L 55.90625 64.59375 
L 19.671875 64.59375 
L 19.671875 43.015625 
L 54.390625 43.015625 
L 54.390625 34.71875 
L 19.671875 34.71875 
L 19.671875 8.296875 
L 56.78125 8.296875 
L 56.78125 0 
L 9.8125 0 
z
" id="DejaVuSans-69"/>
      <path d="M 31 75.875 
Q 24.46875 64.65625 21.28125 53.65625 
Q 18.109375 42.671875 18.109375 31.390625 
Q 18.109375 20.125 21.3125 9.0625 
Q 24.515625 -2 31 -13.1875 
L 23.1875 -13.1875 
Q 15.875 -1.703125 12.234375 9.375 
Q 8.59375 20.453125 8.59375 31.390625 
Q 8.59375 42.28125 12.203125 53.3125 
Q 15.828125 64.359375 23.1875 75.875 
z
" id="DejaVuSans-40"/>
      <path d="M 4.890625 31.390625 
L 31.203125 31.390625 
L 31.203125 23.390625 
L 4.890625 23.390625 
z
" id="DejaVuSans-45"/>
      <path d="M 72.703125 32.078125 
Q 68.453125 32.078125 66.03125 28.46875 
Q 63.625 24.859375 63.625 18.40625 
Q 63.625 12.0625 66.03125 8.421875 
Q 68.453125 4.78125 72.703125 4.78125 
Q 76.859375 4.78125 79.265625 8.421875 
Q 81.6875 12.0625 81.6875 18.40625 
Q 81.6875 24.8125 79.265625 28.4375 
Q 76.859375 32.078125 72.703125 32.078125 
z
M 72.703125 38.28125 
Q 80.421875 38.28125 84.953125 32.90625 
Q 89.5 27.546875 89.5 18.40625 
Q 89.5 9.28125 84.9375 3.921875 
Q 80.375 -1.421875 72.703125 -1.421875 
Q 64.890625 -1.421875 60.34375 3.921875 
Q 55.8125 9.28125 55.8125 18.40625 
Q 55.8125 27.59375 60.375 32.9375 
Q 64.9375 38.28125 72.703125 38.28125 
z
M 22.3125 68.015625 
Q 18.109375 68.015625 15.6875 64.375 
Q 13.28125 60.75 13.28125 54.390625 
Q 13.28125 47.953125 15.671875 44.328125 
Q 18.0625 40.71875 22.3125 40.71875 
Q 26.5625 40.71875 28.96875 44.328125 
Q 31.390625 47.953125 31.390625 54.390625 
Q 31.390625 60.6875 28.953125 64.34375 
Q 26.515625 68.015625 22.3125 68.015625 
z
M 66.40625 74.21875 
L 74.21875 74.21875 
L 28.609375 -1.421875 
L 20.796875 -1.421875 
z
M 22.3125 74.21875 
Q 30.03125 74.21875 34.609375 68.875 
Q 39.203125 63.53125 39.203125 54.390625 
Q 39.203125 45.171875 34.640625 39.84375 
Q 30.078125 34.515625 22.3125 34.515625 
Q 14.546875 34.515625 10.03125 39.859375 
Q 5.515625 45.21875 5.515625 54.390625 
Q 5.515625 63.484375 10.046875 68.84375 
Q 14.59375 74.21875 22.3125 74.21875 
z
" id="DejaVuSans-37"/>
      <path d="M 8.015625 75.875 
L 15.828125 75.875 
Q 23.140625 64.359375 26.78125 53.3125 
Q 30.421875 42.28125 30.421875 31.390625 
Q 30.421875 20.453125 26.78125 9.375 
Q 23.140625 -1.703125 15.828125 -13.1875 
L 8.015625 -13.1875 
Q 14.5 -2 17.703125 9.0625 
Q 20.90625 20.125 20.90625 31.390625 
Q 20.90625 42.671875 17.703125 53.65625 
Q 14.5 64.65625 8.015625 75.875 
z
" id="DejaVuSans-41"/>
     </defs>
     <use xlink:href="#DejaVuSans-84"/>
     <use x="45.958984" xlink:href="#DejaVuSans-117"/>
     <use x="109.337891" xlink:href="#DejaVuSans-114"/>
     <use x="150.451172" xlink:href="#DejaVuSans-107"/>
     <use x="208.361328" xlink:href="#DejaVuSans-32"/>
     <use x="240.148438" xlink:href="#DejaVuSans-84"/>
     <use x="298.107422" xlink:href="#DejaVuSans-105"/>
     <use x="325.890625" xlink:href="#DejaVuSans-112"/>
     <use x="389.367188" xlink:href="#DejaVuSans-105"/>
     <use x="417.150391" xlink:href="#DejaVuSans-32"/>
     <use x="448.9375" xlink:href="#DejaVuSans-66"/>
     <use x="517.541016" xlink:href="#DejaVuSans-97"/>
     <use x="578.820312" xlink:href="#DejaVuSans-115"/>
     <use x="630.919922" xlink:href="#DejaVuSans-107"/>
     <use x="687.080078" xlink:href="#DejaVuSans-97"/>
     <use x="748.359375" xlink:href="#DejaVuSans-110"/>
     <use x="811.738281" xlink:href="#DejaVuSans-108"/>
     <use x="839.521484" xlink:href="#DejaVuSans-105"/>
     <use x="867.304688" xlink:href="#DejaVuSans-107"/>
     <use x="925.214844" xlink:href="#DejaVuSans-32"/>
     <use x="957.001953" xlink:href="#DejaVuSans-83"/>
     <use x="1020.478516" xlink:href="#DejaVuSans-105"/>
     <use x="1048.261719" xlink:href="#DejaVuSans-115"/>
     <use x="1100.361328" xlink:href="#DejaVuSans-116"/>
     <use x="1139.570312" xlink:href="#DejaVuSans-101"/>
     <use x="1201.09375" xlink:href="#DejaVuSans-109"/>
     <use x="1298.505859" xlink:href="#DejaVuSans-105"/>
     <use x="1326.289062" xlink:href="#DejaVuSans-110"/>
     <use x="1389.667969" xlink:href="#DejaVuSans-105"/>
     <use x="1417.451172" xlink:href="#DejaVuSans-110"/>
     <use x="1480.830078" xlink:href="#DejaVuSans-32"/>
     <use x="1512.617188" xlink:href="#DejaVuSans-68"/>
     <use x="1589.619141" xlink:href="#DejaVuSans-111"/>
     <use x="1650.800781" xlink:href="#DejaVuSans-108"/>
     <use x="1678.583984" xlink:href="#DejaVuSans-97"/>
     <use x="1739.863281" xlink:href="#DejaVuSans-114"/>
     <use x="1780.976562" xlink:href="#DejaVuSans-32"/>
     <use x="1812.763672" xlink:href="#DejaVuSans-117"/>
     <use x="1876.142578" xlink:href="#DejaVuSans-122"/>
     <use x="1928.632812" xlink:href="#DejaVuSans-101"/>
     <use x="1990.15625" xlink:href="#DejaVuSans-114"/>
     <use x="2031.269531" xlink:href="#DejaVuSans-105"/>
     <use x="2059.052734" xlink:href="#DejaVuSans-110"/>
     <use x="2122.431641" xlink:href="#DejaVuSans-100"/>
     <use x="2185.908203" xlink:href="#DejaVuSans-101"/>
     <use x="2247.431641" xlink:href="#DejaVuSans-32"/>
     <use x="2279.21875" xlink:href="#DejaVuSans-69"/>
     <use x="2342.402344" xlink:href="#DejaVuSans-116"/>
     <use x="2381.611328" xlink:href="#DejaVuSans-107"/>
     <use x="2439.521484" xlink:href="#DejaVuSans-105"/>
     <use x="2467.304688" xlink:href="#DejaVuSans-115"/>
     <use x="2519.404297" xlink:href="#DejaVuSans-105"/>
     <use x="2547.1875" xlink:href="#DejaVuSans-32"/>
     <use x="2578.974609" xlink:href="#DejaVuSans-40"/>
     <use x="2617.988281" xlink:href="#DejaVuSans-45"/>
     <use x="2654.072266" xlink:href="#DejaVuSans-37"/>
     <use x="2749.091797" xlink:href="#DejaVuSans-52"/>
     <use x="2812.714844" xlink:href="#DejaVuSans-49"/>
     <use x="2876.337891" xlink:href="#DejaVuSans-41"/>
    </g>
   </g>
   <g id="legend_1">
    <g id="patch_7">
     <path d="M 79 135.8325 
L 206.034375 135.8325 
Q 208.034375 135.8325 208.034375 133.8325 
L 208.034375 76.12 
Q 208.034375 74.12 206.034375 74.12 
L 79 74.12 
Q 77 74.12 77 76.12 
L 77 133.8325 
Q 77 135.8325 79 135.8325 
z
" style="fill:#ffffff;opacity:0.8;stroke:#cccccc;stroke-linejoin:miter;"/>
    </g>
    <g id="line2d_15">
     <path d="M 81 82.218437 
L 101 82.218437 
" style="fill:none;stroke:#1f77b4;stroke-linecap:square;stroke-width:1.5;"/>
    </g>
    <g id="line2d_16"/>
    <g id="text_14">
     <!-- Gerceklesen -->
     <g transform="translate(109 85.718437)scale(0.1 -0.1)">
      <defs>
       <path d="M 59.515625 10.40625 
L 59.515625 29.984375 
L 43.40625 29.984375 
L 43.40625 38.09375 
L 69.28125 38.09375 
L 69.28125 6.78125 
Q 63.578125 2.734375 56.6875 0.65625 
Q 49.8125 -1.421875 42 -1.421875 
Q 24.90625 -1.421875 15.25 8.5625 
Q 5.609375 18.5625 5.609375 36.375 
Q 5.609375 54.25 15.25 64.234375 
Q 24.90625 74.21875 42 74.21875 
Q 49.125 74.21875 55.546875 72.453125 
Q 61.96875 70.703125 67.390625 67.28125 
L 67.390625 56.78125 
Q 61.921875 61.421875 55.765625 63.765625 
Q 49.609375 66.109375 42.828125 66.109375 
Q 29.4375 66.109375 22.71875 58.640625 
Q 16.015625 51.171875 16.015625 36.375 
Q 16.015625 21.625 22.71875 14.15625 
Q 29.4375 6.6875 42.828125 6.6875 
Q 48.046875 6.6875 52.140625 7.59375 
Q 56.25 8.5 59.515625 10.40625 
z
" id="DejaVuSans-71"/>
       <path d="M 48.78125 52.59375 
L 48.78125 44.1875 
Q 44.96875 46.296875 41.140625 47.34375 
Q 37.3125 48.390625 33.40625 48.390625 
Q 24.65625 48.390625 19.8125 42.84375 
Q 14.984375 37.3125 14.984375 27.296875 
Q 14.984375 17.28125 19.8125 11.734375 
Q 24.65625 6.203125 33.40625 6.203125 
Q 37.3125 6.203125 41.140625 7.25 
Q 44.96875 8.296875 48.78125 10.40625 
L 48.78125 2.09375 
Q 45.015625 0.34375 40.984375 -0.53125 
Q 36.96875 -1.421875 32.421875 -1.421875 
Q 20.0625 -1.421875 12.78125 6.34375 
Q 5.515625 14.109375 5.515625 27.296875 
Q 5.515625 40.671875 12.859375 48.328125 
Q 20.21875 56 33.015625 56 
Q 37.15625 56 41.109375 55.140625 
Q 45.0625 54.296875 48.78125 52.59375 
z
" id="DejaVuSans-99"/>
      </defs>
      <use xlink:href="#DejaVuSans-71"/>
      <use x="77.490234" xlink:href="#DejaVuSans-101"/>
      <use x="139.013672" xlink:href="#DejaVuSans-114"/>
      <use x="177.876953" xlink:href="#DejaVuSans-99"/>
      <use x="232.857422" xlink:href="#DejaVuSans-101"/>
      <use x="294.380859" xlink:href="#DejaVuSans-107"/>
      <use x="352.291016" xlink:href="#DejaVuSans-108"/>
      <use x="380.074219" xlink:href="#DejaVuSans-101"/>
      <use x="441.597656" xlink:href="#DejaVuSans-115"/>
      <use x="493.697266" xlink:href="#DejaVuSans-101"/>
      <use x="555.220703" xlink:href="#DejaVuSans-110"/>
     </g>
    </g>
    <g id="line2d_17">
     <path d="M 81 96.896563 
L 101 96.896563 
" style="fill:none;stroke:#ff7f0e;stroke-linecap:square;stroke-width:1.5;"/>
    </g>
    <g id="line2d_18"/>
    <g id="text_15">
     <!-- Oncesi -->
     <g transform="translate(109 100.396563)scale(0.1 -0.1)">
      <defs>
       <path d="M 39.40625 66.21875 
Q 28.65625 66.21875 22.328125 58.203125 
Q 16.015625 50.203125 16.015625 36.375 
Q 16.015625 22.609375 22.328125 14.59375 
Q 28.65625 6.59375 39.40625 6.59375 
Q 50.140625 6.59375 56.421875 14.59375 
Q 62.703125 22.609375 62.703125 36.375 
Q 62.703125 50.203125 56.421875 58.203125 
Q 50.140625 66.21875 39.40625 66.21875 
z
M 39.40625 74.21875 
Q 54.734375 74.21875 63.90625 63.9375 
Q 73.09375 53.65625 73.09375 36.375 
Q 73.09375 19.140625 63.90625 8.859375 
Q 54.734375 -1.421875 39.40625 -1.421875 
Q 24.03125 -1.421875 14.8125 8.828125 
Q 5.609375 19.09375 5.609375 36.375 
Q 5.609375 53.65625 14.8125 63.9375 
Q 24.03125 74.21875 39.40625 74.21875 
z
" id="DejaVuSans-79"/>
      </defs>
      <use xlink:href="#DejaVuSans-79"/>
      <use x="78.710938" xlink:href="#DejaVuSans-110"/>
      <use x="142.089844" xlink:href="#DejaVuSans-99"/>
      <use x="197.070312" xlink:href="#DejaVuSans-101"/>
      <use x="258.59375" xlink:href="#DejaVuSans-115"/>
      <use x="310.693359" xlink:href="#DejaVuSans-105"/>
     </g>
    </g>
    <g id="line2d_19">
     <path d="M 81 111.574687 
L 101 111.574687 
" style="fill:none;stroke:#2ca02c;stroke-linecap:square;stroke-width:1.5;"/>
    </g>
    <g id="line2d_20"/>
    <g id="text_16">
     <!-- Sonrasi -->
     <g transform="translate(109 115.074687)scale(0.1 -0.1)">
      <use xlink:href="#DejaVuSans-83"/>
      <use x="63.476562" xlink:href="#DejaVuSans-111"/>
      <use x="124.658203" xlink:href="#DejaVuSans-110"/>
      <use x="188.037109" xlink:href="#DejaVuSans-114"/>
      <use x="229.150391" xlink:href="#DejaVuSans-97"/>
      <use x="290.429688" xlink:href="#DejaVuSans-115"/>
      <use x="342.529297" xlink:href="#DejaVuSans-105"/>
     </g>
    </g>
    <g id="line2d_21">
     <path d="M 81 126.252813 
L 101 126.252813 
" style="fill:none;stroke:#d62728;stroke-dasharray:5.55,2.4;stroke-dashoffset:0;stroke-width:1.5;"/>
    </g>
    <g id="line2d_22"/>
    <g id="text_17">
     <!-- Degisim olmasaydi -->
     <g transform="translate(109 129.752813)scale(0.1 -0.1)">
      <defs>
       <path d="M 45.40625 27.984375 
Q 45.40625 37.75 41.375 43.109375 
Q 37.359375 48.484375 30.078125 48.484375 
Q 22.859375 48.484375 18.828125 43.109375 
Q 14.796875 37.75 14.796875 27.984375 
Q 14.796875 18.265625 18.828125 12.890625 
Q 22.859375 7.515625 30.078125 7.515625 
Q 37.359375 7.515625 41.375 12.890625 
Q 45.40625 18.265625 45.40625 27.984375 
z
M 54.390625 6.78125 
Q 54.390625 -7.171875 48.1875 -13.984375 
Q 42 -20.796875 29.203125 -20.796875 
Q 24.46875 -20.796875 20.265625 -20.09375 
Q 16.0625 -19.390625 12.109375 -17.921875 
L 12.109375 -9.1875 
Q 16.0625 -11.328125 19.921875 -12.34375 
Q 23.78125 -13.375 27.78125 -13.375 
Q 36.625 -13.375 41.015625 -8.765625 
Q 45.40625 -4.15625 45.40625 5.171875 
L 45.40625 9.625 
Q 42.625 4.78125 38.28125 2.390625 
Q 33.9375 0 27.875 0 
Q 17.828125 0 11.671875 7.65625 
Q 5.515625 15.328125 5.515625 27.984375 
Q 5.515625 40.671875 11.671875 48.328125 
Q 17.828125 56 27.875 56 
Q 33.9375 56 38.28125 53.609375 
Q 42.625 51.21875 45.40625 46.390625 
L 45.40625 54.6875 
L 54.390625 54.6875 
z
" id="DejaVuSans-103"/>
       <path d="M 32.171875 -5.078125 
Q 28.375 -14.84375 24.75 -17.8125 
Q 21.140625 -20.796875 15.09375 -20.796875 
L 7.90625 -20.796875 
L 7.90625 -13.28125 
L 13.1875 -13.28125 
Q 16.890625 -13.28125 18.9375 -11.515625 
Q 21 -9.765625 23.484375 -3.21875 
L 25.09375 0.875 
L 2.984375 54.6875 
L 12.5 54.6875 
L 29.59375 11.921875 
L 46.6875 54.6875 
L 56.203125 54.6875 
z
" id="DejaVuSans-121"/>
      </defs>
      <use xlink:href="#DejaVuSans-68"/>
      <use x="77.001953" xlink:href="#DejaVuSans-101"/>
      <use x="138.525391" xlink:href="#DejaVuSans-103"/>
      <use x="202.001953" xlink:href="#DejaVuSans-105"/>
      <use x="229.785156" xlink:href="#DejaVuSans-115"/>
      <use x="281.884766" xlink:href="#DejaVuSans-105"/>
      <use x="309.667969" xlink:href="#DejaVuSans-109"/>
      <use x="407.080078" xlink:href="#DejaVuSans-32"/>
      <use x="438.867188" xlink:href="#DejaVuSans-111"/>
      <use x="500.048828" xlink:href="#DejaVuSans-108"/>
      <use x="527.832031" xlink:href="#DejaVuSans-109"/>
      <use x="625.244141" xlink:href="#DejaVuSans-97"/>
      <use x="686.523438" xlink:href="#DejaVuSans-115"/>
      <use x="738.623047" xlink:href="#DejaVuSans-97"/>
      <use x="799.902344" xlink:href="#DejaVuSans-121"/>
      <use x="859.082031" xlink:href="#DejaVuSans-100"/>
      <use x="922.558594" xlink:href="#DejaVuSans-105"/>
     </g>
    </g>
   </g>
  </g>
 </g>
 <defs>
  <clipPath id="p7467d3cc6e">
   <rect height="434.88" width="446.4" x="72" y="69.12"/>
  </clipPath>
 </defs>
</svg>
